<svg xmlns="http://www.w3.org/2000/svg" viewBox="0 0 30 38"><style>*{fill:#fff;}</style><path d="M3.3,34.9h7v-7h-7V34.9z M4.5,29.1H9v4.4H4.5V29.1z"/><path d="M11.5,34.9h7v-7h-7V34.9z M12.8,29.1h4.4v4.4h-4.4V29.1z"/><path d="M19.8,34.9h7V19.6h-7V34.9z M21,20.9h4.4v12.7H21V20.9z"/><path d="M3.3,26.6h7v-7h-7V26.6z M4.5,20.9H9v4.4H4.5V20.9z"/><path d="M11.5,26.6h7v-7h-7V26.6z M12.8,20.9h4.4v4.4h-4.4V20.9z"/><path d="M3.3,18.4h7v-7h-7V18.4z M4.5,12.7H9v4.4H4.5V12.7z"/><path d="M11.5,18.4h7v-7h-7V18.4z M12.8,12.7h4.4v4.4h-4.4V12.7z"/><path d="M19.8,18.4h7v-7h-7V18.4z M21,12.7h4.4v4.4H21V12.7z"/><path d="M3.3,9.5h23.5V3.1H3.3V9.5z M4.5,4.4h20.9v3.8H4.5V4.4z"/><path d="M28,1.9C28,1.9,28.1,2,28,1.9L28.1,36c0,0,0,0.1-0.1,0.1H2c0,0-0.1,0-0.1-0.1V2c0,0,0-0.1,0.1-0.1H28 M28,0H2 C0.9,0,0,0.9,0,2v34c0,1.1,0.9,2,2,2h26c1.1,0,2-0.9,2-2V2C30,0.9,29.1,0,28,0L28,0z"/></svg>