<svg xmlns="http://www.w3.org/2000/svg" xmlns:xlink="http://www.w3.org/1999/xlink" viewBox="0 0 30 30"><style>*{fill:#fff;}</style><path d="M11.1,10.1v5.8H5.7v-5.8H11.1 M11.3,8.8H5.5C5,8.8,4.6,9.3,4.6,9.9v6.2c0,0.6,0.4,1.1,0.9,1.1h5.8 c0.5,0,0.9-0.5,0.9-1.1V9.9C12.3,9.3,11.8,8.8,11.3,8.8L11.3,8.8z"/><path d="M24.7,12.7H13.9c-0.4,0-0.7-0.3-0.7-0.7s0.3-0.7,0.7-0.7h10.8c0.4,0,0.7,0.3,0.7,0.7S25.1,12.7,24.7,12.7z"/><path d="M24.7,17.2H13.9c-0.4,0-0.7-0.3-0.7-0.7s0.3-0.7,0.7-0.7h10.8c0.4,0,0.7,0.3,0.7,0.7S25.1,17.2,24.7,17.2z"/><path d="M24.7,21.2H5.3c-0.4,0-0.7-0.3-0.7-0.7s0.3-0.7,0.7-0.7h19.4c0.4,0,0.7,0.3,0.7,0.7S25.1,21.2,24.7,21.2z"/><path d="M26.7,3.7c0.8,0,1.5,0.7,1.5,1.5v19.4c0,0.8-0.7,1.5-1.5,1.5H3.3c-0.8,0-1.5-0.7-1.5-1.5V5.3	c0-0.8,0.7-1.5,1.5-1.5H26.7 M26.7,2H3.3C1.5,2,0,3.5,0,5.3v19.4C0,26.5,1.5,28,3.3,28h23.4c1.8,0,3.3-1.5,3.3-3.3V5.3 C30,3.5,28.5,2,26.7,2L26.7,2z"/></svg>