<svg xmlns="http://www.w3.org/2000/svg" xmlns:xlink="http://www.w3.org/1999/xlink" viewBox="0 0 298.1 226"><g fill="#fff"><path d="M261.4,62.9c-0.9-1.1-2.5-1.2-3.5-0.3L201,111.2c-0.7,0.6-1,1.5-0.8,2.4c0,0.1,0,0.1,0,0.2 c0.4,1.7,2.6,2.3,3.9,1.2l57-48.5C262.2,65.5,262.3,63.9,261.4,62.9z"/>	<path d="M59.3,67.5c-1.2-0.8-2.9-0.3-3.6,1c-0.6,1.2-0.1,2.6,1,3.3l71,44.9c1.2,0.8,2.9,0.3,3.5-1c0,0,0,0,0,0 c0.6-1.1,0.2-2.5-0.9-3.2L59.3,67.5z"/>		<path  d="M186,93c-6.6,0-12,13.2-12,29.5c0,7.4,1.1,14.1,2.9,19.3l-2.5-1.6l-0.5-0.3c-2.3-1.5-5.4-1.3-7.5,0.5 l-0.5,0.4L153.9,151c1.3-4.7,2.1-10.4,2.1-16.5c0-6.1-0.8-11.8-2.1-16.5c-0.3-1.1-6.9,3-6.9,3s5.5-7.4,5.2-8c-2.1-5-5-8-8.2-8 c-6.6,0-12,13.2-12,29.5c0,16.3,5.4,29.5,12,29.5c8,0,23.8-18.2,23.8-18.2c1.6-1.3,3.8-1.5,5.5-0.4c0,0,6.7,6.6,12.7,6.6 c6.6,0,12-13.2,12-29.5C198,106.2,192.6,93,186,93z"/><path d="M261.4,124.9c-0.9-1.1-2.5-1.2-3.5-0.3L201,173.2c-0.7,0.6-1,1.5-0.8,2.4c0,0.1,0,0.1,0,0.2 c0.4,1.7,2.6,2.3,3.9,1.2l57-48.5C262.2,127.5,262.3,125.9,261.4,124.9z"/><path d="M59.3,129.5c-1.2-0.8-2.9-0.3-3.6,1c-0.6,1.2-0.1,2.6,1,3.3l71,44.9c1.2,0.8,2.9,0.3,3.5-1c0,0,0,0,0,0 c0.6-1.1,0.2-2.5-0.9-3.2L59.3,129.5z"/><path d="M186,155c-6.6,0-12,13.2-12,29.5c0,7.4,1.1,14.1,2.9,19.3l-2.5-1.6l-0.5-0.3c-2.3-1.5-5.4-1.3-7.5,0.5 l-0.5,0.4L153.9,213c1.3-4.7,2.1-10.4,2.1-16.5c0-16.3-5.4-29.5-12-29.5s-12,13.2-12,29.5c0,16.3,5.4,29.5,12,29.5 c8,0,23.8-18.2,23.8-18.2c1.6-1.3,3.8-1.5,5.5-0.4c0,0,6.7,6.6,12.7,6.6c2.5,0,4.8-1.8,6.7-5c0.2-0.3-6.7-9-6.7-9s7.6,7.3,7.8,7 c2.6-5.4,4.2-13.5,4.2-22.5C198,168.2,192.6,155,186,155z"/><path d="M261.4,0.9c-0.9-1.1-2.5-1.2-3.5-0.3L201,49.2c-0.7,0.6-1,1.5-0.8,2.4c0,0.1,0,0.1,0,0.2 c0.4,1.7,2.6,2.3,3.9,1.2l57-48.5C262.2,3.5,262.3,1.9,261.4,0.9z"/><path d="M59.3,5.5c-1.2-0.8-2.9-0.3-3.6,1c-0.6,1.2-0.1,2.6,1,3.3l71,44.9c1.2,0.8,2.9,0.3,3.5-1c0,0,0,0,0,0 c0.6-1.1,0.2-2.5-0.9-3.2L59.3,5.5z"/><path d="M186,31c-6.6,0-12,13.2-12,29.5c0,2.6,0.1,5.1,0.4,7.5c0.1,0.7,9.6-4,9.6-4s-9.1,7.5-9,8.3 c0.5,2.7,1.1,5.2,1.9,7.5l-2.5-1.6l-0.5-0.3c-2.3-1.5-5.4-1.3-7.5,0.5l-0.5,0.4L153.9,89c1.3-4.7,2.1-10.4,2.1-16.5 c0-16.3-5.4-29.5-12-29.5s-12,13.2-12,29.5c0,16.3,5.4,29.5,12,29.5c8,0,23.8-18.2,23.8-18.2c1.6-1.3,3.8-1.5,5.5-0.4 c0,0,6.7,6.6,12.7,6.6c6.6,0,12-13.2,12-29.5C198,44.2,192.6,31,186,31z"/><path d="M20.6,95.8c-1.1-0.2-3.2-1.2-5.9-2.9C4.8,86.5,0,75.1,0,64.1c0-14.7,8.2-15.2,15.8-10.2 c2.7,1.7,4.5,3.5,5.3,4.5l-1.3,5.6c-0.9-1-1.9-2-3.5-3.1c-4.3-2.8-8.2-1.6-8.2,8.1c0,9.3,3.5,15.3,8.2,18.3 c1.3,0.8,2.7,1.5,3.7,1.8L20.6,95.8z"/><path d="M31.4,64.3L35,81.4c0.5,2.5,1,5.2,1.3,7.1l0.2,0.1c0.3-1.6,0.6-3.9,0.9-5.8L40,69.9l7.7,5L41.9,92 c-1.3,4.1-2.8,8.4-4.8,10.5c-1.9,1.9-4.7,2.1-7.9-0.1c-1.3-0.9-2.3-1.6-3.1-2.3l0.3-6c0.3,0.3,0.9,0.8,1.9,1.4	c2,1.3,3.6,0.3,4.2-1.2c0.3-0.6,0.2-1.3-0.1-2.4L23.3,59L31.4,64.3z"/><path d="M73.2,91.5v39.1l-7.6-4.9V93.1l-7.8-5v32.5l-7.6-4.9V76.5L73.2,91.5z"/><path d="M96.5,128.5l-8.9-5.8v10.6l10.1,6.6v6.6l-17.7-11.5V95.8l17,11v6.6l-9.4-6.1v9l8.9,5.8V128.5z"/><path d="M102.8,111.3c2.1,0.9,5,2.5,7.9,4.4c4.5,2.9,8.1,5.9,10.6,9.9c2.3,3.5,3.4,7.5,3.4,10.8c0,4.2-1.3,6.4-3.3,7.2 c-2.4,1-6.4-0.4-9.5-2.5c-0.5-0.3-1-0.7-1.5-1v14.6l-7.6-4.9V111.3z M110.4,133.9c0.3,0.3,0.8,0.6,1.2,0.9c3.8,2.5,5.6,0.9,5.6-2.8 c0-3.4-1.4-7-4.9-9.3c-0.7-0.5-1.4-0.8-1.9-0.9V133.9z"/><path d="M221.6,149.3c-1.1,1.5-3.2,3.8-5.9,6.1c-10,8.7-14.7,4.6-14.7-6.5c0-14.7,8.2-27.6,15.8-34.2 c2.7-2.3,4.5-3.4,5.3-3.5l-1.3,7.5c-0.9,0.4-1.9,0.9-3.5,2.3c-4.3,3.7-8.2,10.8-8.2,20.5c0,9.3,3.5,9.9,8.2,5.9 c1.3-1.1,2.7-2.7,3.7-3.8L221.6,149.3z"/><path d="M225.8,107.7c2.1-2.3,5-5.1,7.9-7.7c4.5-3.9,8.1-6.4,10.6-6.2c2.3,0,3.4,2.4,3.4,5.7c0,4.2-1.3,8.3-3.3,12.3 c-2.4,4.7-6.4,9.3-9.5,12c-0.5,0.5-1,0.9-1.5,1.3v14.6l-7.6,6.6V107.7z M233.4,118.8c0.3-0.2,0.8-0.5,1.2-0.9 c3.8-3.3,5.6-7.6,5.6-11.2c0-3.4-1.4-4.9-4.9-1.8c-0.7,0.6-1.4,1.3-1.9,1.9V118.8z"/><path d="M256.5,80.4l3.6,11.6c0.5,1.8,1,3.7,1.3,5.2l0.2-0.2c0.3-2.2,0.6-4.7,0.9-7.2l2.6-16.8l7.7-6.7L267,92.1 c-1.3,6.1-2.8,12.7-4.8,17.8c-1.9,4.7-4.7,9.2-7.9,12c-1.3,1.2-2.3,1.9-3.1,2.3l0.3-6.5c0.3-0.2,0.9-0.6,1.9-1.4 c2-1.7,3.6-5.2,4.2-7.6c0.3-1.1,0.2-1.7-0.1-2.3l-9.1-19L256.5,80.4z"/><path d="M295.2,46.8v6.5l-12.4,10.8v8.2c1.1-1.2,2-2,3.1-3c3.4-2.9,6.3-4.5,8.5-4.5c2.3,0,3.7,1.9,3.7,5.8 c0,3.8-1.2,7.8-3.2,11.7c-2.7,5.2-6.8,10.1-12.5,15c-2.9,2.5-5.3,4.5-7.1,5.7v-39L295.2,46.8z M282.9,90.7c0.5-0.3,1-0.8,1.7-1.3	c1.8-1.6,3.2-3.5,4.2-5.5c1-2,1.4-4,1.4-5.8c0-1.8-0.5-3-1.5-3.2c-1-0.3-2.4,0.2-4.1,1.6c-0.6,0.6-1.2,1.1-1.7,1.7V90.7z"/></g></svg>