<svg xmlns="http://www.w3.org/2000/svg" viewBox="0 0 480.7 336.1"><g fill="#fff"><path d="M466.5,136.3c-7.3,0-13.8-3.9-17.6-9.6c1.7-1.4,3.3-2.8,4.9-4.3c10-9.5,16.5-19.8,20.2-26.6 c1.9-3.6,2.3-7.7,1.1-11.6c-1.2-3.9-3.9-7.1-7.6-9c-15.6-8-26.3-14.3-29.3-17.4l-22.8-22.8L386.1,4.7c-3-3.1-6.9-4.7-11.1-4.7h0	c-4.5,0-8.8,2-11.7,5.5l-23.1,27.1c-4.9,5.7-5.1,14-1.1,20c-0.6,0-1.3-0.1-1.9,0c-2.5,0.2-4.5,1.3-5.9,3.2l-21.9,22.5 c-20.3-9.2-43.7-14.5-68.6-14.5c-0.1,0-0.2,0-0.3,0c-0.1,0-0.2,0-0.3,0c-24.4,0-47.3,5.1-67.4,14l-21.4-22c-1.4-1.9-3.4-3-5.9-3.2	c-0.6-0.1-1.2,0-1.9,0c4-6,3.8-14.3-1.1-20L119.2,5.5C116.2,2,112,0,107.5,0h0c-4.2,0-8.1,1.7-11.1,4.7L67,34.8L44.2,57.7 c-3,3-13.7,9.3-29.3,17.4c-3.7,1.9-6.4,5.1-7.6,9c-1.2,3.9-0.8,8,1.1,11.6c3.7,6.9,10.2,17.1,20.2,26.6c1.2,1.2,2.5,2.3,3.7,3.3 c-3.6,6.3-10.4,10.6-18.2,10.6H0v44.3v44.3h14.2c11.5,0,20.9,9.4,20.9,20.9v9.8h96.1c1.2,1.2,2.5,2.4,3.8,3.6l-63.4,63.6 c-2.7,2.5-4.9,7.1-3.6,10.3c0.8,1.9,2.6,3,5,3h40.9c6.5,0,12.3-6.7,15-12.9l0.1-0.3l1.1-10.9c0.3-0.7,0.5-1.4,0.7-2.1 c0.3-1.2,0.6-2.4,1.2-2.9l27.7-27.7l1.8-1.6c0,0,0,0,0,0c22.5,12.3,49.5,19.5,78.6,19.5c0.1,0,0.2,0,0.3,0c0.1,0,0.2,0,0.3,0 c29.5,0,57-7.4,79.7-20.1c0,0,0,0,0,0l2.5,2.2l27.7,27.7c0.6,0.6,0.9,1.8,1.2,2.9c0.2,0.7,0.4,1.4,0.7,2.1l1.1,10.9l0.1,0.3 c2.7,6.2,8.5,12.9,15,12.9h40.9c2.4,0,4.2-1.1,5-3c1.3-3.3-0.9-7.8-3.6-10.3l-64.3-64.5c1-0.9,1.9-1.8,2.9-2.7h96.1v-9.8 c0-11.5,9.4-20.9,20.9-20.9h14.2v-44.3v-44.3H466.5z M343.2,35.2l23.1-27.1c2.3-2.7,5.5-4.1,8.7-4.1c2.9,0,5.9,1.2,8.2,3.5 l29.4,30.1c0,0,16.1,16.1,22.9,22.9c4.2,4.2,18.1,11.8,28.4,17.1c0,0.1-0.1,0.2-0.1,0.3c-0.6,1.3-1.4,3.3-2.6,5.5	c-0.6,1.1-1.2,2.4-1.9,3.6c-0.7,1.3-1.4,2.6-2.3,4c-0.8,1.4-1.7,2.7-2.6,4.2c-0.9,1.4-1.9,2.8-2.9,4.2c-1,1.3-2,2.7-3.1,4 c-1.1,1.3-2.1,2.6-3.2,3.7c-1.1,1.1-2.1,2.3-3.2,3.3c-0.5,0.5-1.1,1-1.6,1.5c-0.5,0.5-1,0.9-1.5,1.3c-1,0.8-1.9,1.5-2.7,2.2 c-0.8,0.6-1.6,1.1-2.2,1.5c-1.3,0.8-2,1.3-2,1.3s0.8-0.4,2.1-1.1c0.7-0.4,1.5-0.8,2.4-1.3c0.9-0.6,1.9-1.2,3-1.9 c0.6-0.3,1.1-0.8,1.6-1.2c0.6-0.4,1.1-0.9,1.7-1.3c1.2-0.9,2.3-2,3.6-3c1.3-1,2.4-2.3,3.6-3.5c1.2-1.2,2.3-2.5,3.5-3.8 c1.1-1.3,2.2-2.7,3.3-4c1-1.4,2.1-2.7,3-4c1-1.3,1.9-2.6,2.7-3.9c0.8-1.2,1.6-2.4,2.3-3.6c1.3-2.2,2.4-4,3.1-5.4 c3.9,3.3,5.1,9,2.6,13.7c-3.8,7-10,16.6-19.4,25.6c-7.8,7.5-16.1,12.5-22.8,15.8c-2.5,0.4-5.6,0.6-7.3-0.9c6.5-5.6,10.6-12,8.1-12 c-2,0-13.4,7.9-17.6,10.9c-1.4-1.3-2.6-2.9-3.4-4.8l-8.3-19.5c-3-7-18.2-22.1-25.2-28.8l26-31.7l-28.8,29c-0.5-0.5-0.8-0.7-0.8-0.7	l-26.7-23.9C339.3,48.3,338.8,40.4,343.2,35.2z M393.1,105.6h-42l15.2-17.1c2.1-2.3,3.1-5.2,3-8C376.7,87.4,387.6,98.4,393.1,105.6 z M335,57.8l0.7-1c0.7-1,1.1-0.7,2.5-0.8c1.4-0.1,3.1,0.2,4.8,0.9l22.1,19.8c1.4,2.7,1,6-1.1,8.4l-16.5,18.6 c-9.8-9.2-21.4-17.1-34.3-23.5L335,57.8z M144.2,56c1.4,0.1,1.8-0.2,2.5,0.8l0.7,1l21.3,21.9c-13,6.2-24.6,14-34.5,23.1l-15.7-17.7 c-2.2-2.4-2.5-5.7-1.1-8.4l22.1-19.8C141.1,56.2,142.8,55.8,144.2,56z M131.3,105.5C131.3,105.5,131.3,105.6,131.3,105.5l-42,0.1	c5.5-7.2,16.4-18.2,23.9-25.2c-0.1,2.9,0.9,5.7,3,8L131.3,105.5C131.3,105.5,131.3,105.5,131.3,105.5z M31.4,119.5 c-9.4-9-15.7-18.6-19.4-25.6c-2.5-4.7-1.3-10.4,2.6-13.7c0.7,1.4,1.8,3.2,3.1,5.4c0.7,1.1,1.4,2.3,2.3,3.6c0.8,1.3,1.7,2.5,2.7,3.9 c0.9,1.3,2,2.7,3,4c1.1,1.3,2.2,2.7,3.3,4c1.2,1.3,2.3,2.6,3.5,3.8c1.2,1.2,2.4,2.4,3.6,3.5c1.2,1.1,2.4,2.2,3.6,3 c0.6,0.5,1.2,0.9,1.7,1.3c0.5,0.4,1.1,0.8,1.6,1.2c1.1,0.7,2.1,1.4,3,1.9c0.9,0.6,1.7,1,2.4,1.3c1.3,0.7,2.1,1.1,2.1,1.1 s-0.7-0.5-2-1.3c-0.6-0.4-1.4-0.9-2.2-1.5c-0.8-0.6-1.7-1.4-2.7-2.2c-0.5-0.4-1-0.8-1.5-1.3c-0.5-0.5-1-1-1.6-1.5	c-1.1-1-2.1-2.1-3.2-3.3c-1.1-1.1-2.1-2.4-3.2-3.7c-1.1-1.3-2.1-2.7-3.1-4c-1-1.4-1.9-2.8-2.9-4.2c-0.9-1.4-1.8-2.8-2.6-4.2	c-0.8-1.4-1.6-2.7-2.3-4c-0.7-1.3-1.3-2.5-1.9-3.6c-1.1-2.3-2-4.2-2.6-5.5c0-0.1-0.1-0.2-0.1-0.3C28.9,72.3,42.9,64.7,47,60.5 c6.8-6.8,22.9-22.9,22.9-22.9L99.3,7.5c2.3-2.4,5.3-3.5,8.2-3.5c3.2,0,6.4,1.4,8.7,4.1l23.1,27.1c4.4,5.1,3.8,13-1.2,17.5	l-26.7,23.9c0,0-0.3,0.3-0.8,0.7l-28.8-29l26,31.7c-7,6.8-22.3,21.8-25.2,28.8l-8.3,19.5c-0.8,1.9-2,3.5-3.4,4.8 c-4.2-3-15.6-10.9-17.6-10.9c-2.5,0,1.6,6.4,8.1,12c-1.7,1.5-4.8,1.4-7.3,0.9C47.4,131.9,39.2,126.9,31.4,119.5z M156.9,276.5 l-27.8,27.7c-1.3,1.3-1.8,3.1-2.2,4.7c-0.2,0.7-0.4,1.4-0.6,1.9l-0.1,0.3l-1.1,10.8c-2.2,5-6.8,10.2-11.2,10.2H73 c-1.1,0-1.2-0.4-1.3-0.5c-0.4-1,0.4-3.9,2.7-6l63.6-63.8c6,5.1,12.6,9.8,19.7,13.9L156.9,276.5z M408.1,325.6c2.3,2.1,3.1,5,2.7,6 c-0.1,0.1-0.2,0.5-1.3,0.5h-40.9c-4.4,0-9-5.2-11.2-10.2l-1.1-10.8l-0.1-0.3c-0.2-0.5-0.4-1.2-0.6-1.9c-0.4-1.6-0.9-3.4-2.2-4.7 l-27.8-27.7l-1.6-1.4c0,0,0,0,0,0c7-4.2,13.6-8.9,19.6-14.1L408.1,325.6z M477.7,180.6v41.3h-11.2c-13.2,0-23.9,10.7-23.9,23.9v6.8 h-93.1h-1.2l-0.9,0.9c-26.5,25.9-65.4,40.8-106.7,40.8l-0.1,0l-0.2,0l-0.2,0l-0.1,0c-41.3,0-80.2-14.9-106.7-40.8l-0.9-0.9h-1.2 H38.1v-6.8c0-13.2-10.7-23.9-23.9-23.9H3v-41.3v-41.3h11.2c8.7,0,16.3-4.7,20.5-11.7c0,0,0,0,0,0c5.7,4.5,12,8.4,18.7,11.6 c2.5,1.2,5.1,1.8,7.8,1.8c7.3,0,13.9-4.4,16.8-11.1l8.3-19.5c0.2-0.5,0.6-1.1,1-1.8h44h1.2l0.9-0.9c26.5-25.9,65.4-40.8,106.7-40.8	l0.1,0l0.2,0l0.2,0l0.1,0c41.3,0,80.2,14.9,106.7,40.8l0.9,0.9h1.2h45.7c0.4,0.7,0.7,1.3,1,1.8l8.3,19.5 c2.9,6.8,9.5,11.1,16.8,11.1c2.7,0,5.3-0.6,7.8-1.8c6.3-3,12.1-6.6,17.5-10.7l0,0c4.3,6.5,11.6,10.7,19.9,10.7h11.2V180.6z"/><path d="M380.1,224.7c0,0,19.3,0,21.5,0c4.5,0,7.2-1.1,7.3-5.1c0,0,0.1-13.1,0-15.9c0-13.3-5.7-19.6-20.2-19.6 c0-1.8,0-27.3,0-27.3h13.1v12.1l7.9,7.9v-24.3h-29.6V224.7z M388.4,187.3c7,0,12.6,5.6,12.6,12.6v20.9h-12.6V187.3z"/><path d="M361.8,184.1c0.1,3.7-2.4,7.5-5.2,7.7c-3.3,0.1-6.4-3.9-6.4-7.5s0-31.8,0-31.8h-9.1c0,0,0,26.5,0,30 c0,3.5,4.8,12.3,15.1,12.2c4-0.1,5.4-2.8,5.4-2.8v28.2h-12.2v-8.7l-8.3-7.5l0,21h29.8l0-72.3h-9.1 C361.8,152.4,361.7,179.4,361.8,184.1z"/><path d="M326.6,152.4h-22.3l-0.1,72.2h9v-31.5c0,0,3.5,0.3,7.5-0.2c7.3-0.8,12.6-14,12.6-25.2 C333.3,154.6,329.6,152.7,326.6,152.4z M325.2,166.2c0.1,13.7-7.5,23.4-12,23.1c0,0,0,0-0.1,0c0,0,0.1,0,0.1,0l0-32.6h12 C325.2,156.8,325.2,162.4,325.2,166.2z M312.9,189.3C312.6,189.3,312.7,189.3,312.9,189.3L312.9,189.3z"/><path d="M88.8,220.4c0,0-9.6-6.9-10.6-35.1c-1-26.9,10.2-27.1,10.2-27.1c5.6,0.3,4.8,11.1,4.8,11.1h8.3 c0,0,1.4-16.8-13.2-16.8C70.9,152.4,71,174,71,186c0,31.6,10.2,38.7,16.7,38.7c9.7,0,14-11.7,14-11.7h-7.9	C93.8,213,93.6,220.4,88.8,220.4z"/><path d="M250.6,152.4h-22.3l-0.1,72.2h9v-31.5c0,0,3.5,0.3,7.5-0.2c7.3-0.8,12.6-14,12.6-25.2 C257.3,154.6,253.6,152.7,250.6,152.4z M249.2,166.2c0.1,13.7-7.5,23.4-12,23.1c0,0,0,0-0.1,0c0,0,0.1,0,0.1,0l0-32.6h12	C249.2,156.8,249.2,162.4,249.2,166.2z M236.9,189.3C236.6,189.3,236.7,189.3,236.9,189.3L236.9,189.3z"/><path d="M219.4,179.1l0-26.7l-30.9,0.2v72.2l30.7-0.1l0-25.6l-9.2,9.7v11.3h-12.5v-33.8c0,0,3,0,5,0 c3.9,0,4.4,6.3,4.4,6.3h7.1c0,0-2.8-8.5-7.4-8.5s-9.1,0-9.1,0v-26.4h12.7V171L219.4,179.1z"/><polygon points="148.7,224.7 158,224.7 158,157.7 170.8,157.7 170.8,224.7 179.7,224.7 179.7,152.6 148.8,152.4 	"/><path d="M130.8,184.1c0.1,3.7-2.4,7.5-5.2,7.7c-3.3,0.1-6.4-3.9-6.4-7.5s0-31.8,0-31.8h-9.1c0,0,0,26.5,0,30 c0,3.5,4.8,12.3,15.1,12.2c4-0.1,5.4-2.8,5.4-2.8v28.2h-12.2v-8.7l-8.3-7.5l0,21h29.8l0-72.3h-9.1	C130.8,152.4,130.7,179.4,130.8,184.1z"/><path d="M282.8,220.4c0,0-9.6-6.9-10.6-35.1c-1-26.9,10.2-27.1,10.2-27.1c5.6,0.3,4.8,11.1,4.8,11.1h8.3 c0,0,1.4-16.8-13.2-16.8c-17.5,0-17.4,21.6-17.4,33.5c0,31.6,10.2,38.7,16.8,38.7c9.7,0,13.9-11.7,13.9-11.7h-7.9 C287.8,213,287.6,220.4,282.8,220.4z"/></g></svg>