<svg xmlns="http://www.w3.org/2000/svg"	 viewBox="0 0 25 25"><style type="text/css">.s{fill:#fff;}.t{fill:#E68C1F;}</style><circle class="t" cx="12.5" cy="12.5" r="12.5"/><path class="s" d="M16.4,3.2H8.6c-0.8,0-1.4,0.6-1.4,1.4v16c0,0.7,0.6,1.4,1.4,1.4h7.9c0.8,0,1.4-0.6,1.4-1.4v-16 C17.8,3.8,17.2,3.2,16.4,3.2z M10.6,4h3.9c0.1,0,0.2,0.1,0.2,0.3c0,0.2-0.1,0.3-0.2,0.3h-3.9c-0.1,0-0.2-0.1-0.2-0.3	C10.4,4.1,10.5,4,10.6,4z M12.5,20.5c-0.5,0-0.9-0.4-0.9-0.9s0.4-0.9,0.9-0.9c0.5,0,0.9,0.4,0.9,0.9S13,20.5,12.5,20.5z M16.8,17.5	H8.2V5.5h8.5C16.8,5.5,16.8,17.5,16.8,17.5z"/></svg>