<svg xmlns="http://www.w3.org/2000/svg" viewBox="0 0 30 30"><style>*{fill:#fff;}</style><path d="M16,16h-2c-0.6,0-1-0.4-1-1v-2c0-0.6,0.4-1,1-1h2c0.6,0,1,0.4,1,1v2C17,15.6,16.6,16,16,16z"/><path d="M9,16H7c-0.6,0-1-0.4-1-1v-2c0-0.6,0.4-1,1-1h2c0.6,0,1,0.4,1,1v2C10,15.6,9.6,16,9,16z"/><path d="M23,16h-2c-0.6,0-1-0.4-1-1v-2c0-0.6,0.4-1,1-1h2c0.6,0,1,0.4,1,1v2C24,15.6,23.6,16,23,16z"/><path d="M27,4.5c0.6,0,1,0.5,1,1v14c0,0.6-0.5,1-1,1h-4h-2v2v1.1l-3.9-2.7l-0.5-0.4H16H3c-0.6,0-1-0.5-1-1v-14	c0-0.6,0.5-1,1-1H27 M27,2.5H3c-1.7,0-3,1.3-3,3v14c0,1.7,1.3,3,3,3h13l7,4.9v-4.9h4c1.7,0,3-1.3,3-3v-14C30,3.9,28.7,2.5,27,2.5 L27,2.5z"/></svg>