<svg xmlns="http://www.w3.org/2000/svg" viewBox="0 0 25 25"><style>.t{fill:#fff;}.s{fill:#6e479c;}</style><circle class="s" cx="12.5" cy="12.5" r="12.5"/><path class="t" d="M20.498,8.934l-0.005-0.02c-0.404-1.632-2.224-3.385-3.897-3.749l-0.02-0.004 c-2.705-0.516-5.447-0.516-8.15,0l-0.02,0.004C6.734,5.529,4.913,7.282,4.509,8.914l-0.005,0.02c-0.5,2.281-0.5,4.594,0,6.874	l0.005,0.019c0.388,1.563,2.072,3.236,3.683,3.696v1.823c0,0.66,0.804,0.983,1.261,0.507l1.847-1.919 c0.4,0.021,0.801,0.034,1.202,0.034c1.362,0,2.723-0.129,4.075-0.387l0.02-0.005c1.674-0.363,3.493-2.116,3.897-3.75l0.005-0.019 C20.997,13.528,20.997,11.215,20.498,8.934z M19.035,15.477c-0.269,1.065-1.652,2.391-2.75,2.636 c-1.438,0.273-2.888,0.389-4.335,0.35c-0.029,0-0.057,0.011-0.077,0.03c-0.206,0.212-1.349,1.384-1.349,1.384L9.09,21.35 c-0.104,0.109-0.289,0.035-0.289-0.115v-3.021c0-0.051-0.035-0.093-0.084-0.102H8.716c-1.098-0.245-2.48-1.57-2.751-2.636 c-0.45-2.061-0.45-4.15,0-6.211C6.235,8.2,7.618,6.875,8.716,6.631c2.512-0.479,5.059-0.479,7.569,0 c1.1,0.244,2.481,1.569,2.75,2.634C19.486,11.326,19.486,13.416,19.035,15.477z"/><path class="t" d="M14.891,16.871c-0.17-0.052-0.33-0.087-0.479-0.148c-1.55-0.642-2.975-1.471-4.104-2.742 c-0.642-0.723-1.145-1.538-1.569-2.402c-0.202-0.408-0.371-0.834-0.544-1.257C8.036,9.935,8.269,9.538,8.513,9.247	c0.229-0.273,0.525-0.481,0.845-0.634c0.25-0.121,0.497-0.051,0.679,0.16c0.394,0.458,0.756,0.939,1.049,1.47 c0.181,0.326,0.131,0.725-0.195,0.947c-0.081,0.054-0.152,0.117-0.226,0.178c-0.066,0.054-0.126,0.107-0.171,0.18	c-0.081,0.133-0.085,0.29-0.033,0.433c0.404,1.109,1.083,1.97,2.198,2.435c0.178,0.073,0.358,0.16,0.563,0.136 c0.346-0.04,0.457-0.416,0.697-0.614c0.236-0.193,0.537-0.196,0.791-0.035c0.254,0.16,0.501,0.333,0.745,0.507 c0.241,0.171,0.479,0.34,0.701,0.534c0.214,0.188,0.286,0.435,0.167,0.69c-0.221,0.466-0.54,0.853-1.001,1.102 C15.192,16.802,15.036,16.826,14.891,16.871C14.721,16.819,15.036,16.826,14.891,16.871z"/><path class="t" d="M12.506,8.079c2.025,0.056,3.69,1.401,4.045,3.404c0.061,0.342,0.082,0.69,0.109,1.037	c0.011,0.146-0.071,0.283-0.228,0.286c-0.163,0.002-0.235-0.134-0.247-0.279c-0.021-0.289-0.034-0.579-0.075-0.865 c-0.208-1.509-1.414-2.757-2.916-3.025c-0.225-0.041-0.456-0.051-0.685-0.075c-0.145-0.015-0.334-0.023-0.367-0.204 c-0.026-0.151,0.101-0.271,0.244-0.279C12.427,8.077,12.466,8.078,12.506,8.079C14.531,8.134,12.466,8.078,12.506,8.079z"/><path class="t" d="M15.584,12.069c-0.003,0.025-0.005,0.085-0.021,0.142c-0.053,0.202-0.362,0.228-0.433,0.023 c-0.022-0.062-0.024-0.13-0.024-0.195c-0.001-0.431-0.094-0.858-0.31-1.232c-0.224-0.384-0.563-0.706-0.961-0.901	c-0.241-0.119-0.502-0.191-0.767-0.234c-0.115-0.02-0.231-0.031-0.348-0.048c-0.14-0.02-0.215-0.109-0.208-0.248 c0.006-0.129,0.101-0.223,0.242-0.215c0.466,0.027,0.914,0.127,1.327,0.346c0.841,0.445,1.321,1.148,1.462,2.086 c0.006,0.043,0.016,0.085,0.02,0.126C15.571,11.826,15.576,11.931,15.584,12.069C15.581,12.095,15.576,11.931,15.584,12.069z"/><path class="t" d="M14.324,12.021c-0.17,0.003-0.261-0.091-0.277-0.245c-0.014-0.109-0.022-0.219-0.049-0.325 c-0.051-0.207-0.162-0.399-0.336-0.527c-0.081-0.06-0.176-0.104-0.273-0.132c-0.125-0.036-0.254-0.025-0.377-0.056 c-0.135-0.033-0.209-0.142-0.188-0.269c0.019-0.114,0.131-0.205,0.256-0.196c0.785,0.057,1.347,0.464,1.428,1.388 c0.004,0.064,0.01,0.134-0.002,0.196C14.479,11.961,14.4,12.016,14.324,12.021C14.154,12.023,14.4,12.016,14.324,12.021z"/><path class="t" d="M12.137,8.079c-0.001,0-0.003,0-0.004,0C12.131,8.079,12.133,8.079,12.137,8.079z"/><path class="t" d="M12.133,8.079c0.001,0,0.003,0,0.004,0C12.229,8.082,13.742,8.123,12.133,8.079z"/></svg>