<svg xmlns="http://www.w3.org/2000/svg" viewBox="0 0 25 25"><style type="text/css">.s{fill:#75B743;}.t{fill:#fff;}</style><circle class="s" cx="12.5" cy="12.5" r="12.5"/><path class="t" d="M12.1,4c-4.5,0.2-8,3.9-8,8.4c0,1.4,0.3,2.7,0.9,3.8l-0.9,4.3c0,0.2,0.2,0.4,0.4,0.4l4.3-1 c1.1,0.5,2.3,0.9,3.6,0.9c4.6,0.1,8.4-3.6,8.5-8.2C21.1,7.8,17,3.8,12.1,4L12.1,4z M17.2,17.1c-1.2,1.2-2.9,1.9-4.7,1.9 c-1,0-2-0.2-2.9-0.7L9,18l-2.6,0.6L6.9,16l-0.3-0.6c-0.5-0.9-0.7-1.9-0.7-3c0-1.8,0.7-3.4,1.9-4.7c1.2-1.2,2.9-1.9,4.7-1.9	c1.8,0,3.4,0.7,4.7,1.9c1.2,1.2,1.9,2.9,1.9,4.7C19.1,14.2,18.4,15.9,17.2,17.1L17.2,17.1z"/><path class="t" d="M16.6,14.3L15,13.8c-0.2-0.1-0.4,0-0.6,0.2L14,14.4c-0.2,0.2-0.4,0.2-0.6,0.1c-0.8-0.3-2.4-1.8-2.8-2.5 c-0.1-0.2-0.1-0.5,0-0.7l0.3-0.5c0.1-0.2,0.2-0.4,0.1-0.6l-0.7-1.6c-0.2-0.4-0.6-0.5-0.9-0.2c-0.5,0.4-1,1-1.1,1.6	c-0.1,1.1,0.4,2.6,2.2,4.3c2.1,2,3.9,2.3,5,2c0.6-0.2,1.1-0.8,1.5-1.3C17.1,14.8,17,14.4,16.6,14.3L16.6,14.3z"/></svg>